# xmcd CD database file
#
# Track frame offsets:
#	150
#	12840
#	21741
#	31311
#	39254
#	48798
#
# Disc length: 783 seconds
#
# Revision: 0
# Processed by: cddbd v1.5PL3 Copyright (c) Steve Scherf et al.
# Submitted via: CDex 1.51
#
DISCID=3f030d06
DTITLE=Los Infernos - Meirda Vieja
DYEAR=1900
DGENRE=Salsa
TTITLE0=Go Getter
TTITLE1=Problems
TTITLE2=Boys Disease Blues
TTITLE3=Restless
TTITLE4=Behave Yourself
TTITLE5=What I Found
EXTD=
EXTT0=
EXTT1=
EXTT2=
EXTT3=
EXTT4=
EXTT5=
PLAYORDER=
